<svg xmlns="http://www.w3.org/2000/svg" xmlns:svg="http://www.w3.org/2000/svg" id="svg908" width="365.546" height="591.999" version="1.1" viewBox="0 0 96.717 156.633"><title id="title825">Ethereum Classic Logo</title><metadata id="metadata905"/><g id="layer1" transform="translate(-56.641256,-70.183469)" style="display:none"><g style="display:inline" id="g1627" transform="translate(56.415936,69.875162)"><g id="g896"><path id="path838" d="m 0.22532,85.613348 c 17.045069,9.04101 34.806023,18.517432 48.557268,25.844422 L 96.942808,85.620618 C 79.505468,111.53208 64.980668,133.08532 48.782368,156.94137 32.564033,133.13531 14.643092,106.85834 0.22532,85.613348 Z m 1.863679,-7.13823 46.748789,-24.94739 46.14603,24.76633 -46.10598,24.968892 z" style="display:inline;fill:#009f42;fill-opacity:1;stroke-width:.35277781"/><g id="g842"><path id="path1599" d="m 0.22532,85.613348 c 17.045069,9.04101 34.806023,18.517432 48.557268,25.844422 L 96.942808,85.620618 C 79.505468,111.53208 64.980668,133.08532 48.782368,156.94137 32.564033,133.13531 14.643092,106.85834 0.22532,85.613348 Z m 1.863679,-7.13823 46.748789,-24.94739 46.14603,24.76633 -46.10598,24.968892 z M 48.773048,45.518618 0.23098,71.079908 48.562288,0.308307 96.924578,71.234528 Z" style="display:inline;fill:#01c853;fill-opacity:1;stroke-width:.35277781"/></g><path style="display:inline;fill:#009f42;fill-opacity:1;stroke-width:.35277781" id="path1593" d="m 48.782588,111.45777 48.16022,-25.837152 c -17.43734,25.911462 -48.16044,71.320752 -48.16044,71.320752 z m 0.0552,-57.930042 46.14603,24.76633 -46.10598,24.968892 z m -0.0647,-8.009112 -0.21076,-45.2103108 48.36229,70.9262228 z"/><path style="display:inline;fill:#007831;fill-opacity:1;stroke-width:.35277781" id="path1606" d="m 48.837788,82.301168 46.14603,-4.00711 -46.10598,24.968892 -0.0401,-20.961782 z"/><path id="path850" d="m 48.837688,82.301168 -46.748689,-3.82605 46.708639,24.787832 0.0401,-20.961782 z" style="display:inline;fill:#009f42;fill-opacity:1;stroke-width:.35277781"/><path id="path852" d="m 48.782588,111.45777 48.16022,-25.83715 c -17.43734,25.91146 -31.96214,47.4647 -48.16044,71.32075 z" style="display:inline;fill:#009f42;fill-opacity:1;stroke-width:.35277781"/></g></g></g><g id="layer6" style="display:inline"><g id="g873"><g style="display:inline" id="g1006" transform="matrix(1.0408977,0,0,1.0408977,-2.168957,-3.2849971)"><g id="g1004"><path id="path990" d="m 2.088999,78.475118 46.748789,-24.94739 46.14603,24.76633 -46.10598,24.968892 z" style="display:inline;fill:#009f42;fill-opacity:1;stroke-width:.35277781"/><g id="g994"><path id="path992" d="m 2.088999,78.475118 46.748789,-24.94739 46.14603,24.76633 -46.10598,24.968892 z" style="display:inline;fill:#01c853;fill-opacity:1;stroke-width:.35277781"/></g><path style="display:inline;fill:#009f42;fill-opacity:1;stroke-width:.35277781" id="path996" d="m 48.837788,53.527728 46.14603,24.76633 -46.10598,24.968892 z"/><path style="display:inline;fill:#007831;fill-opacity:1;stroke-width:.35277781" id="path998" d="m 48.837788,82.301168 46.14603,-4.00711 -46.10598,24.968892 -0.0401,-20.961782 z"/><path id="path1000" d="m 48.837688,82.301168 -46.748689,-3.82605 46.708639,24.787832 0.0401,-20.961782 z" style="display:inline;fill:#009f42;fill-opacity:1;stroke-width:.35277781"/></g></g><g id="g923" transform="translate(-0.22532,-0.308307)" style="display:inline"><path style="display:inline;fill:#009f42;fill-opacity:1;stroke-width:.35277781" id="path909" d="m 0.22532,85.613348 c 17.045069,9.04101 34.806023,18.517432 48.557268,25.844422 L 96.942808,85.620618 C 79.505468,111.53208 64.980668,133.08532 48.782368,156.94137 32.564033,133.13531 14.643092,106.85834 0.22532,85.613348 Z"/><g id="g913"><path style="display:inline;fill:#01c853;fill-opacity:1;stroke-width:.35277781" id="path911" d="m 0.22532,85.613348 c 17.045069,9.04101 34.806023,18.517432 48.557268,25.844422 L 96.942808,85.620618 C 79.505468,111.53208 64.980668,133.08532 48.782368,156.94137 32.564033,133.13531 14.643092,106.85834 0.22532,85.613348 Z"/></g><path id="path915" d="M 48.782588,111.45777 96.942808,85.620618 C 79.505468,111.53208 48.782368,156.94137 48.782368,156.94137 Z" style="display:inline;fill:#009f42;fill-opacity:1;stroke-width:.35277781"/><path style="display:inline;fill:#009f42;fill-opacity:1;stroke-width:.35277781" id="path921" d="m 48.782588,111.45777 48.16022,-25.83715 c -17.43734,25.91146 -31.96214,47.4647 -48.16044,71.32075 z"/></g><g id="g1033"><path id="path974" d="M 48.547728,45.210311 0.00566,70.771601 48.336968,0 96.699258,70.926221 Z" style="display:inline;fill:#01c853;fill-opacity:1;stroke-width:.35277781"/><path style="display:inline;fill:#009f42;fill-opacity:1;stroke-width:.35277781" id="path978" d="M 48.773088,45.518616 48.562328,0.3083052 96.924618,71.234528 Z" transform="translate(-0.22532,-0.308307)"/></g></g></g></svg>